<?xml version="1.0" encoding="UTF-8"?>
<svg id="Layer_1" data-name="Layer 1" xmlns="http://www.w3.org/2000/svg" viewBox="0 0 743.35 748">
  <defs>
    <style>
      .cls-1 {
        fill: #3d75bb;
      }

      .cls-2 {
        fill: #fbd65e;
      }
    </style>
  </defs>
  <path class="cls-2" d="M289.06,748l-189.1-101.29c-1.08-4.61,9.27-30.9,11.35-37.93,11.29-38.29,23.22-79.76,29.07-119.19,8.02-54,9.26-109.16,6.33-163.59l59.13-15.25,2.28,1.09c13.09,74.58,10.96,152-8,225.41-6.88,26.63-16.4,52.6-26.46,78.12l98.17,55.93,43.69-48.83c9.57,1.67,46.74,34.91,45.3,42.21l-64.26,83.31h-7.5Z"/>
  <path class="cls-2" d="M522.74,201.89c2.97,5.05-12.18,51.66-14.61,60.45-1.3.91-26.34-9.02-30.04-10.63-83.73-36.38-159.6-95.08-213.69-168.51l-3.03-1.35-95,54.15c-3.19,5.43,17.98,53.42,19.06,63.1-.82,2.82-20.95,11.21-25.03,12.53-5.31,1.72-28.29,7.25-32.26,6.22-5.5-1.44-37.97-93.38-42.94-105.11L273.25,3.94c4.37.45,16.28,17.56,20.27,21.79,58.33,61.89,114.29,110.43,188.03,153.66,5.67,3.32,40,20.47,41.19,22.49Z"/>
  <path class="cls-2" d="M743.35,476.83c-55.61,11.67-112.41,24.27-165.19,45.47-45.5,18.28-88.3,42.48-130.04,67.92-1.07.38-2.05.26-3.12-.03-2.82-.78-41.01-38-41.78-40.82-.64-2.34.02-2.66,1.37-4.18,2.18-2.48,13.81-11.59,17.25-14.22,10.52-8.05,24.58-16.84,35.93-24.02,68.29-43.14,143.47-69.83,224.07-79.52l.06-111.91c-1.93-2.26-50.54-9.2-58.41-11.31-2.02-.54-4.96-.97-5.76-3.27-1.19-3.43,3.62-31.21,5.06-36.47,1.05-3.83,8.47-23.09,10.72-23.83l109.39,19.25.44,216.96Z"/>
  <path class="cls-1" d="M436.67,621.68c6.7,7.07,13.77,13.98,20.31,21.23,7.72,8.57,14.26,19.22,23.38,25.81l4.79-1.2,96.26-54.38-19.23-64.08c7.22-2.47,55.33-19.57,58.35-16.6,0,2.44.26,4.84,1.05,7.17,6.33,18.5,28.96,76.98,29.1,92.35.03,2.76-.13,6.3-1.54,8.69l-176.18,99.83c-3.85-.77-6.91-2.86-9.94-5.19-35.99-27.77-73.44-77.7-108.68-110.1-38.27-35.19-82.91-63.15-132.14-80.74l12.87-58.45c37.61,11.51,73.4,28.78,106.06,50.58,37.5,25.02,64.84,52.7,95.53,85.08Z"/>
  <path class="cls-1" d="M593.4,418.51l-56.94,14.5c-11.98-56.7-12.66-117.94-1.03-174.9,8.81-43.14,25.79-86.09,38.46-128.2l-98.47-56.79-5.68,1.15c-6.14,5.85-36.84,45.07-41.93,45.04-6.38-3.07-42.47-36-42.59-39.96L455.29,1.09c10.01-4.62,25.16,6.58,34.28,11.62,49.48,27.34,97.56,57.7,146.66,85.67,1.26,1.54,2.93,5.45,3.23,7.38.92,5.78-6.84,33.02-8.84,40.76-21.83,84.32-47.51,142.71-41.62,234.03.38,5.96,6.45,35.57,4.41,37.96Z"/>
  <path class="cls-1" d="M341.55,197.13c1.33,1.84-3.82,6.15-5.2,7.5-14.34,13.95-38.63,30.9-55.82,41.6-67.07,41.77-143.73,57.76-220.32,73.53l.07,115.47,1.79,2.95,59.84,11.82c3.64,5.16-8.37,49.12-12.01,57.18-1.45,1.29-7.95-.18-10.18-.61-25.38-4.87-61.68-10.64-85.5-17.95-5.97-1.83-14.01-4.59-13.24-12.23,2.64-58.68-3.19-119.93.03-178.3.38-6.89,1.5-16.37,3.51-22.72,2.04-2.47,35.13-11.78,41.24-13.47,84.81-23.48,150.94-30.76,225.79-83.04,4.21-2.94,24.46-20.09,26.07-20.52,4.53-1.22,6.17,4.7,8.69,7.35,10.6,11.16,22.19,23.33,35.26,31.44Z"/>
</svg>